# xmcd
#
# Track frame offsets:
#	150
#	20139
#	36584
#	56680
#	73588
#	89286
#	109365
#	128121
#	146675
#	161944
#	179508
#	197954
#
# Disc length: 2940 seconds
#
# Revision: 1
# Processed by: cddbd v1.5.2PL0 Copyright (c) Steve Scherf et al.
# Submitted via: audiograbber 1.83.01
#
DISCID=bf0b7a0c
DTITLE=Rosenstolz - Das grosse leben
DYEAR=2006
DGENRE=Pop
TTITLE0=Rosenstolz - Nichts von alledem (tut mir leid)
TTITLE1=Rosenstolz - Ich bin Ich (Wir sind Wir)
TTITLE2=Rosenstolz - Anders als geplant
TTITLE3=Rosenstolz - Ich geh in Flammen auf
TTITLE4=Rosenstolz - Ein Wunder für mich
TTITLE5=Rosenstolz - Auch im Regen
TTITLE6=Rosenstolz - Ich bin verändert
TTITLE7=Rosenstolz - Bester Feind
TTITLE8=Rosenstolz - Ich habe genauso Angst wie du
TTITLE9=Rosenstolz - Aus Liebe wollt ich alles wissen
TTITLE10=Rosenstolz - Etwas zerstört
TTITLE11=Rosenstolz - Woran hält sich die Liebe
EXTD=
EXTT0=
EXTT1=
EXTT2=
EXTT3=
EXTT4=
EXTT5=
EXTT6=
EXTT7=
EXTT8=
EXTT9=
EXTT10=
EXTT11=
PLAYORDER=
